<svg xmlns="http://www.w3.org/2000/svg" width="16" height="16" viewBox="0 0 0.64 0.64" xml:space="preserve"><path d="M0.12 0.22h0.096c0.011 -0.012 0.027 -0.02 0.044 -0.02h0.16V0.1c0 -0.022 -0.018 -0.04 -0.04 -0.04H0.06c-0.022 0 -0.04 0.018 -0.04 0.04v0.22c0 0.022 0.018 0.04 0.04 0.04h0.08l0.06 0.06v-0.16H0.12a0.02 0.02 0 0 1 0 -0.04m0 -0.08h0.2a0.02 0.02 0 0 1 0 0.04H0.12a0.02 0.02 0 0 1 0 -0.04m0.46 0.08H0.26c-0.022 0 -0.04 0.018 -0.04 0.04v0.22c0 0.022 0.018 0.04 0.04 0.04h0.1l0.06 0.06 0.06 -0.06h0.1c0.022 0 0.04 -0.018 0.04 -0.04V0.26c0 -0.022 -0.018 -0.04 -0.04 -0.04m-0.06 0.2H0.32a0.02 0.02 0 0 1 0 -0.04h0.2a0.02 0.02 0 0 1 0 0.04m0 -0.08H0.32a0.02 0.02 0 0 1 0 -0.04h0.2a0.02 0.02 0 0 1 0 0.04" style="fill:#FFF"/></svg>